HIERARCHY
ROOT Bip01_Pelvis
{
	OFFSET 0.000000 0.594324 0.000000
	CHANNELS 6 Xposition Yposition Zposition Zrotation Yrotation Xrotation 
	JOINT Bip01_Spine
	{
		OFFSET 0.009608 0.007105 0.185793
		CHANNELS 3 Zrotation Yrotation Xrotation
		JOINT Bip01_R_Thigh
		{
			OFFSET -0.196334 0.019009 -0.192703
			CHANNELS 3 Zrotation Yrotation Xrotation
			JOINT Bip01_R_Calf
			{
				OFFSET -0.014650 -0.312868 -0.030736
				CHANNELS 3 Zrotation Yrotation Xrotation
				JOINT Bip01_R_Foot
				{
					OFFSET -0.013986 -0.234582 -0.078269
					CHANNELS 3 Zrotation Yrotation Xrotation
					JOINT Bip01_R_Toe0
					{
						OFFSET -0.005548 -0.066783 0.153622
						CHANNELS 3 Zrotation Yrotation Xrotation
						End Site #name: Bip01_R_Toe0Nub
						{
							OFFSET -0.006574 -0.003324 0.147113
						}
					}
				}
			}
		}
		JOINT Bip01_L_Thigh
		{
			OFFSET 0.159836 0.016130 -0.176189
			CHANNELS 3 Zrotation Yrotation Xrotation
			JOINT Bip01_L_Calf
			{
				OFFSET 0.011399 -0.312868 -0.032084
				CHANNELS 3 Zrotation Yrotation Xrotation
				JOINT Bip01_L_Foot
				{
					OFFSET 0.005836 -0.234583 -0.079294
					CHANNELS 3 Zrotation Yrotation Xrotation
					JOINT Bip01_L_Toe0
					{
						OFFSET 0.021365 -0.066784 0.152231
						CHANNELS 3 Zrotation Yrotation Xrotation
						End Site #name: Bip01_L_Toe0Nub
						{
							OFFSET 0.021714 -0.003324 0.145650
						}
					}
				}
			}
		}
		JOINT Bip01_Spine1
		{
			OFFSET 0.024988 0.035917 0.256035
			CHANNELS 3 Zrotation Yrotation Xrotation
			JOINT Bip01_Neck
			{
				OFFSET 0.017372 0.108008 0.335926
				CHANNELS 3 Zrotation Yrotation Xrotation
				JOINT Bip01_R_Clavicle
				{
					OFFSET 0.082771 0.085319 -0.131431
					CHANNELS 3 Zrotation Yrotation Xrotation
					JOINT Bip01_R_UpperArm
					{
						OFFSET -0.310444 -0.051678 0.043061
						CHANNELS 3 Zrotation Yrotation Xrotation
						JOINT Bip01_R_Forearm
						{
							OFFSET 0.015772 -0.429548 -0.042549
							CHANNELS 3 Zrotation Yrotation Xrotation
							JOINT Bip01_R_Hand
							{
								OFFSET 0.009541 -0.283246 -0.000864
								CHANNELS 3 Zrotation Yrotation Xrotation
								JOINT Bip01_R_Finger1
								{
									OFFSET -0.019044 -0.031978 0.180618
									CHANNELS 3 Zrotation Yrotation Xrotation
									End Site #name: Bip01_R_Finger1Nub
									{
										OFFSET 0.002759 -0.001752 0.059654
									}
								}
								JOINT Bip01_R_Finger0
								{
									OFFSET 0.061029 -0.032053 0.177878
									CHANNELS 3 Zrotation Yrotation Xrotation
									End Site #name: Bip01_R_Finger0Nub
									{
										OFFSET 0.002206 0.000489 0.059499
									}
								}
							}
						}
					}
				}
				JOINT Bip01_L_Clavicle
				{
					OFFSET -0.100731 0.088760 -0.115693
					CHANNELS 3 Zrotation Yrotation Xrotation
					JOINT Bip01_L_UpperArm
					{
						OFFSET 0.313230 -0.051678 0.010809
						CHANNELS 3 Zrotation Yrotation Xrotation
						JOINT Bip01_L_Forearm
						{
							OFFSET -0.020078 -0.429548 -0.040694
							CHANNELS 3 Zrotation Yrotation Xrotation
							JOINT Bip01_L_Hand
							{
								OFFSET -0.009580 -0.283246 0.000125
								CHANNELS 3 Zrotation Yrotation Xrotation
								JOINT Bip01_L_Finger1
								{
									OFFSET 0.037573 -0.031987 0.177688
									CHANNELS 3 Zrotation Yrotation Xrotation
									End Site #name: Bip01_L_Finger1Nub
									{
										OFFSET 0.003409 -0.001751 0.059621
									}
								}
								JOINT Bip01_L_Finger0
								{
									OFFSET -0.042355 -0.032043 0.183226
									CHANNELS 3 Zrotation Yrotation Xrotation
									End Site #name: Bip01_L_Finger0Nub
									{
										OFFSET 0.003943 0.000489 0.059409
									}
								}
							}
						}
					}
				}
				JOINT Bip01_Neck1
				{
					OFFSET 0.002323 -0.021765 0.185681
					CHANNELS 3 Zrotation Yrotation Xrotation
					JOINT Bip01_Head
					{
						OFFSET 0.008898 -0.016415 0.172066
						CHANNELS 3 Zrotation Yrotation Xrotation
						JOINT BN_Mouth_01
						{
							OFFSET 0.004821 -0.160797 0.093227
							CHANNELS 3 Zrotation Yrotation Xrotation
							JOINT BN_Tongue_01
							{
								OFFSET 0.002996 0.005104 0.057938
								CHANNELS 3 Zrotation Yrotation Xrotation
								End Site #name: BN_Tongue_02
								{
									OFFSET 0.002142 -0.038653 0.041421
								}
							}
						}
						End Site #name: BN_Ear_L_01
						{
							OFFSET 0.117212 0.086168 0.071071
						}
						End Site #name: BN_Ear_R_01
						{
							OFFSET -0.109259 0.086168 0.082782
						}
						End Site #name: Bip01_HeadNub
						{
							OFFSET 0.013998 -0.065380 0.270682
						}
					}
				}
			}
		}
	}
}
MOTION
Frames: 6
Frame Time: 0.041667
0.048673 0.523959 0.040708 172.581093 -18.017254 25.874193 -168.750074 -12.232407 -13.922243 -20.162534 -3.334075 2.328350 15.798318 -12.676309 39.080731 -8.955673 -17.495105 -8.773954 2.197670 1.148135 1.788185 -2.886499 6.123948 39.743592 12.318467 -6.377816 35.051016 -16.983223 -10.840929 -20.764803 0.881747 -14.448742 -15.565546 10.515117 20.133630 -27.010501 23.425079 1.805851 15.337490 -14.280883 -19.059701 -93.168423 -111.680819 23.377767 47.472964 41.747902 -22.506731 54.215197 23.720982 62.945171 154.172868 -3.729063 -3.694105 41.476161 -74.735333 54.171621 19.583646 -37.818046 -5.834898 -34.804663 -167.888633 43.576172 179.200954 -52.158721 19.954030 37.721749 -65.904142 -72.452097 163.167579 3.525829 8.265219 47.300308 95.750589 -36.984772 -15.439453 -20.599094 -21.058268 4.032120 -34.581226 -6.167171 44.032958 178.137820 -5.414267 25.376294 -41.106894 -33.556960 -75.885481 
0.047045 0.530865 0.050076 172.940142 -17.893480 25.392183 -168.473010 -11.778754 -14.012410 -20.182107 -3.418577 3.594528 15.552801 -12.156708 37.653603 -8.676934 -17.530322 -8.384417 2.163950 1.167786 1.256732 -2.041469 6.053751 40.339018 11.983566 -6.009383 33.273808 -17.568206 -11.590931 -16.802770 1.952668 -14.681107 -18.427210 9.777857 18.106105 -29.121535 23.248815 2.390582 16.599480 -14.642179 -19.565585 -94.262378 -109.553074 23.825725 46.758349 42.010221 -22.821051 54.558225 20.212474 63.249914 151.460666 -4.057753 -4.318867 40.146789 -73.695647 53.665898 20.686613 -37.581237 -7.510380 -35.557689 -165.794375 42.065376 178.812458 -52.286236 20.042282 37.782216 -67.032309 -71.948059 162.735744 4.200167 8.080301 47.362687 95.621078 -36.373304 -15.642555 -20.518665 -21.262430 3.045060 -33.704474 -5.019592 44.097303 178.137440 -5.413609 25.392315 -41.121234 -33.540737 -75.878180 
0.045438 0.537843 0.058988 173.310714 -17.719631 24.835813 -168.279786 -11.417929 -14.095238 -20.056517 -3.410135 4.708476 15.279552 -11.614208 36.145737 -8.432684 -17.593828 -7.793853 2.131879 1.190841 0.696982 -1.077243 6.132181 40.803995 11.634176 -5.648063 31.478494 -18.177012 -12.306378 -12.646654 3.051731 -14.832982 -21.368081 9.078161 15.930821 -31.096027 23.095647 2.979537 17.825143 -14.975346 -20.056325 -95.282006 -107.078762 23.946553 46.351185 42.195454 -23.044934 54.801136 16.494557 63.554001 148.565774 -4.373874 -4.962316 38.741387 -72.681902 53.146939 21.763053 -37.089772 -9.201659 -36.318478 -163.207754 40.673432 178.663798 -52.157450 19.953162 37.721154 -68.763185 -71.541708 161.876090 4.742780 7.938700 47.686693 95.599567 -36.042071 -15.819532 -20.394261 -21.421245 2.061675 -32.576893 -3.817946 43.999282 178.137017 -5.412919 25.409339 -41.135356 -33.524724 -75.870526 
0.043869 0.544555 0.067442 173.686308 -17.492938 24.210989 -168.189195 -11.180018 -14.158580 -19.770413 -3.297755 5.641136 14.991804 -11.077950 34.635315 -8.218148 -17.675766 -7.103864 2.102377 1.223666 0.125808 -0.022484 6.358254 41.143204 11.282716 -5.306221 29.725899 -18.797091 -12.944437 -8.449060 4.140869 -14.899561 -24.322320 8.427980 13.687789 -32.823715 22.977250 3.565697 18.973524 -15.234341 -20.490178 -96.199741 -104.460428 23.681094 46.225788 42.328145 -23.206315 54.975515 12.794779 63.883990 145.590194 -4.670293 -5.605647 37.348608 -71.789341 52.570314 22.670518 -36.224779 -10.836623 -37.096086 -160.199890 39.454847 178.781284 -51.827294 19.725350 37.563844 -71.932303 -71.356903 160.981277 5.131003 7.852451 48.538071 95.801518 -36.201373 -15.978734 -20.232787 -21.537666 1.105138 -31.198837 -2.630896 43.718235 178.136638 -5.412261 25.425360 -41.143390 -33.514898 -75.856940 
0.042298 0.550897 0.075756 174.077744 -17.218849 23.494485 -168.216795 -11.083878 -14.192203 -19.296978 -3.065231 6.396198 14.694479 -10.556435 33.145348 -8.030902 -17.766598 -6.403655 2.073766 1.257548 -0.432783 1.133954 6.737178 41.371982 10.931361 -4.984350 28.021230 -19.419076 -13.492381 -4.213731 5.213776 -14.884116 -27.318540 7.812819 11.373673 -34.262139 22.888756 4.146164 20.051154 -15.383923 -20.837001 -97.019513 -101.817051 22.970569 46.326998 42.431704 -23.332826 55.111798 9.205429 64.295213 142.527429 -4.953828 -6.261138 35.948424 -70.998191 51.981321 23.444279 -35.029879 -12.408105 -37.900817 -156.863257 38.490970 179.114823 -51.292726 19.358597 37.306866 -76.285612 -71.378352 160.030002 5.385920 7.806353 49.745658 96.160869 -36.714541 -16.116609 -20.033370 -21.614976 0.171046 -29.524251 -1.490013 43.218040 178.136020 -5.411659 25.442397 -41.151605 -33.504880 -75.843503 
0.040686 0.556728 0.084236 174.469762 -16.898370 22.681673 -168.388239 -11.160672 -14.185356 -18.603712 -2.691456 6.967247 14.397083 -10.063797 31.716791 -7.862496 -17.861591 -5.777489 2.050614 1.292851 -0.942750 2.404524 7.279615 41.502941 10.582854 -4.683205 26.372093 -20.031736 -13.929799 0.038282 6.266411 -14.783745 -30.379837 7.202224 8.983400 -35.350427 22.834548 4.733599 21.064732 -15.379057 -21.057673 -97.746408 -99.300320 21.748424 46.584831 42.533347 -23.457478 55.245724 5.825573 64.847099 139.357936 -5.199770 -6.879916 34.611727 -70.286134 51.372543 24.108535 -33.550311 -13.908076 -38.734231 -153.279407 37.869434 179.658609 -50.548656 18.852531 36.944574 -81.573354 -71.584881 159.024674 5.484317 7.808397 51.095465 96.597336 -37.470429 -16.207205 -19.783913 -21.649195 -0.755227 -27.495061 -0.420044 42.457362 178.139188 -5.410917 25.450222 -41.159953 -33.494695 -75.829847 
